<svg xmlns="http://www.w3.org/2000/svg" width="10.593" height="10.543" viewBox="0 0 10.593 10.543"><defs><style>.a{fill:#fff;stroke:#fff;stroke-width:0.5px;}</style></defs><g transform="translate(0.25 0.333)"><path class="a" d="M9.239,44.453a.249.249,0,0,0-.249.249v2.214a.749.749,0,0,1-.748.748h-7A.749.749,0,0,1,.5,46.916v-6.5a.749.749,0,0,1,.748-.748H3.46a.249.249,0,0,0,0-.5H1.247A1.248,1.248,0,0,0,0,40.419v6.5a1.248,1.248,0,0,0,1.247,1.247h7a1.248,1.248,0,0,0,1.247-1.247V44.7A.249.249,0,0,0,9.239,44.453Zm0,0" transform="translate(0 -38.202)"/><path class="a" d="M114.883.589a1.122,1.122,0,0,0-1.587,0l-4.448,4.448a.249.249,0,0,0-.064.11L108.2,7.259a.249.249,0,0,0,.307.307l2.112-.585a.249.249,0,0,0,.11-.064l4.448-4.448a1.123,1.123,0,0,0,0-1.587ZM109.391,5.2l3.64-3.64,1.174,1.174-3.64,3.64Zm-.234.471.938.938-1.3.359Zm5.666-3.554-.264.264-1.174-1.174.265-.264a.623.623,0,0,1,.881,0l.293.293A.624.624,0,0,1,114.823,2.116Zm0,0" transform="translate(-105.493 -0.261)"/></g></svg>