<svg xmlns="http://www.w3.org/2000/svg" width="18.005" height="11.574" viewBox="0 0 18.005 11.574"><defs><style>.a{fill:#2b956e;}</style></defs><path class="a" d="M17.8,96.459a10.731,10.731,0,0,0-3.783-3.7,9.715,9.715,0,0,0-10.037,0A10.729,10.729,0,0,0,.2,96.459a1.3,1.3,0,0,0,0,1.387,10.726,10.726,0,0,0,3.783,3.7,9.732,9.732,0,0,0,10.037.005,10.66,10.66,0,0,0,3.783-3.7,1.3,1.3,0,0,0,0-1.387ZM6.847,93.711A2.94,2.94,0,0,1,9,92.812a.482.482,0,1,1,0,.965,2.093,2.093,0,0,0-2.09,2.09.482.482,0,1,1-.965,0A2.94,2.94,0,0,1,6.847,93.711Zm6.521,6.722a8.417,8.417,0,0,1-8.731,0,10.371,10.371,0,0,1-3.351-3.281,9.875,9.875,0,0,1,3.828-3.547A4.391,4.391,0,0,0,4.5,95.866a4.335,4.335,0,0,0,1.321,3.18A4.334,4.334,0,0,0,9,100.368a4.336,4.336,0,0,0,3.18-1.321,4.334,4.334,0,0,0,1.321-3.18,4.39,4.39,0,0,0-.613-2.261,9.876,9.876,0,0,1,3.828,3.547A10.368,10.368,0,0,1,13.368,100.433Z" transform="translate(0 -91.365)"/></svg>