<svg xmlns="http://www.w3.org/2000/svg" width="24" height="24" viewBox="0 0 24 24"><defs><style>.a{opacity:0.52;}.b{fill:#fff;stroke:#000;stroke-width:1.2px;}.c{stroke:none;}.d{fill:none;}</style></defs><g transform="translate(-1799 -128)"><g class="a" transform="translate(1799 128)"><g transform="translate(0 0)"><path d="M21.429,0H2.571A2.571,2.571,0,0,0,0,2.571V21.429A2.571,2.571,0,0,0,2.571,24H21.429A2.571,2.571,0,0,0,24,21.429V2.571A2.571,2.571,0,0,0,21.429,0Zm.857,21.429a.857.857,0,0,1-.857.857H2.571a.857.857,0,0,1-.857-.857V2.571a.857.857,0,0,1,.857-.857H21.429a.857.857,0,0,1,.857.857V21.429Z"/></g><g class="b" transform="translate(3.981 3.981)"><rect class="c" width="6" height="6" rx="1"/><rect class="d" x="0.6" y="0.6" width="4.8" height="4.8" rx="0.4"/></g><g class="b" transform="translate(3.981 13.934)"><rect class="c" width="6" height="6" rx="1"/><rect class="d" x="0.6" y="0.6" width="4.8" height="4.8" rx="0.4"/></g><g class="b" transform="translate(13.934 3.981)"><rect class="c" width="6" height="6" rx="1"/><rect class="d" x="0.6" y="0.6" width="4.8" height="4.8" rx="0.4"/></g><g class="b" transform="translate(13.934 13.934)"><rect class="c" width="6" height="6" rx="1"/><rect class="d" x="0.6" y="0.6" width="4.8" height="4.8" rx="0.4"/></g></g></g></svg>