<svg xmlns="http://www.w3.org/2000/svg" width="24" height="24" viewBox="0 0 24 24"><defs><style>.a{fill:#532057;}</style></defs><path class="a" d="M21.429,0H2.571A2.571,2.571,0,0,0,0,2.571V21.429A2.571,2.571,0,0,0,2.571,24H21.429A2.571,2.571,0,0,0,24,21.429V2.571A2.571,2.571,0,0,0,21.429,0Zm.857,21.429a.857.857,0,0,1-.857.857H2.571a.857.857,0,0,1-.857-.857V2.571a.857.857,0,0,1,.857-.857H21.429a.857.857,0,0,1,.857.857V21.429Z"/><g transform="translate(4.153 5.086)"><g transform="translate(0 0)"><path class="a" d="M87.851,102.4H85.963c-.348,0-.63.439-.63.98s.282.98.63.98h1.889c.348,0,.63-.439.63-.98S88.2,102.4,87.851,102.4Z" transform="translate(-85.333 -102.4)"/></g></g><g transform="translate(10.329 5.086)"><g transform="translate(0 0)"><path class="a" d="M213.692,102.4h-8a.984.984,0,0,0,0,1.959h8a.984.984,0,0,0,0-1.959Z" transform="translate(-204.8 -102.4)"/></g></g><g transform="translate(4.153 11.02)"><g transform="translate(0 0)"><path class="a" d="M87.851,221.867H85.963c-.348,0-.63.439-.63.98s.282.98.63.98h1.889c.348,0,.63-.439.63-.98S88.2,221.867,87.851,221.867Z" transform="translate(-85.333 -221.867)"/></g></g><g transform="translate(10.329 11.02)"><g transform="translate(0 0)"><path class="a" d="M213.692,221.867h-8a.984.984,0,0,0,0,1.959h8a.984.984,0,0,0,0-1.959Z" transform="translate(-204.8 -221.867)"/></g></g><g transform="translate(4.153 16.954)"><g transform="translate(0 0)"><path class="a" d="M87.851,341.333H85.963c-.348,0-.63.439-.63.98s.282.98.63.98h1.889c.348,0,.63-.439.63-.98S88.2,341.333,87.851,341.333Z" transform="translate(-85.333 -341.333)"/></g></g><g transform="translate(10.329 16.954)"><g transform="translate(0 0)"><path class="a" d="M213.692,341.333h-8a.984.984,0,0,0,0,1.959h8a.984.984,0,0,0,0-1.959Z" transform="translate(-204.8 -341.333)"/></g></g></svg>