<svg xmlns="http://www.w3.org/2000/svg" xmlns:xlink="http://www.w3.org/1999/xlink" width="150" height="150" viewBox="0 0 150 150">
  <defs>
    <linearGradient id="linear-gradient" x1="0.962" y1="-0.134" x2="0.122" y2="0.861" gradientUnits="objectBoundingBox">
      <stop offset="0" stop-color="#ff4bf9"/>
      <stop offset="1" stop-color="#5685ff"/>
    </linearGradient>
  </defs>
  <path id="logo_admin_" data-name="logo(admin)" d="M78,153a75.4,75.4,0,0,1-17-1.935V96A15.017,15.017,0,0,0,46,81v64.85a75.132,75.132,0,0,1-15-9.4V93A15.017,15.017,0,0,0,16,78v42.215A74.6,74.6,0,0,1,3,78,75.484,75.484,0,0,1,4.71,62H60A15.017,15.017,0,0,0,75,47H9.686a75.081,75.081,0,0,1,9.072-15H63A15.017,15.017,0,0,0,78,17H34.355A74.656,74.656,0,0,1,78,3,75.718,75.718,0,0,1,91,4.122V60a15.017,15.017,0,0,0,15,15V8.4a74.924,74.924,0,0,1,15,8.142V63a15.017,15.017,0,0,0,15,15V30.447A74.687,74.687,0,0,1,153,78a75.685,75.685,0,0,1-1.212,13.5H92.5a15.017,15.017,0,0,0-15,15h69.894a74.952,74.952,0,0,1-8.292,15H89.5a15.017,15.017,0,0,0-15,15h50.437A74.682,74.682,0,0,1,78,153Z" transform="translate(-3 -3)" fill="url(#linear-gradient)"/>
</svg>
