<svg xmlns="http://www.w3.org/2000/svg" width="20" height="23.192" viewBox="0 0 20 23.192">
    <path fill="#fff" d="M22.923 7.427c0-.077.077-.154.077-.231v-.461c0-.077-.077-.154-.077-.231l-.154-.154L14.308.965a.833.833 0 0 0-.846 0l-10 6.923-.077.077h-.077c-.077.077-.077.154-.154.231v.077C3 8.5 3 8.581 3 8.658v9.231a.685.685 0 0 0 .385.615l8.462 5.385a1.3 1.3 0 0 0 .385.154 1.093 1.093 0 0 0 .462-.154l10-6.923a.779.779 0 0 0 .306-.539.873.873 0 0 0-.231-.615 2.2 2.2 0 0 1-.385-2.615l.538-1.154c0-.077.077-.154.077-.231v-.077a.462.462 0 0 0-.077-.308v-.077c0-.077-.077-.154-.154-.231a2.2 2.2 0 0 1-.383-2.619zm-1.769 4.154l-8.923 6.154-7.693-4.847v-2.769l7.308 4.615a1.3 1.3 0 0 0 .385.154 1.093 1.093 0 0 0 .462-.154l7.923-5.462a3.663 3.663 0 0 0 .538 2.309zM12.231 22.35L4.538 17.5v-2.765l7.308 4.615a1.3 1.3 0 0 0 .385.154 1.093 1.093 0 0 0 .462-.154l7.923-5.462a3.667 3.667 0 0 0 .538 2.385z" transform="translate(-3 -.85)"/>
</svg>
