<svg xmlns="http://www.w3.org/2000/svg" width="20" height="16" viewBox="0 0 20 16">
    <defs>
        <style>
            .cls-1{fill:#fff}
        </style>
    </defs>
    <g id="Student" transform="translate(0 -2.95)">
        <g id="Group_2885" transform="translate(18.712 8.001)">
            <path id="Path_1054" d="M30.644 20.661a.608.608 0 0 1-.644-.644v-8.373a.644.644 0 1 1 1.288 0v8.373a.608.608 0 0 1-.644.644z" class="cls-1" transform="translate(-30 -11)"/>
        </g>
        <g id="Group_2886" transform="translate(0 2.95)">
            <path id="Path_1055" d="M10 14.575a.549.549 0 0 1-.312-.064L.312 9.358a.694.694 0 0 1 0-1.159l9.375-5.152a.458.458 0 0 1 .562 0L19.623 8.2a.694.694 0 0 1 0 1.159l-9.374 5.152c-.062.064-.125.064-.249.064z" class="cls-1" transform="translate(0 -2.95)"/>
        </g>
        <path id="Path_1056" d="M12.995 21a1.561 1.561 0 0 1-1.718 0L6 18.1v2.512c0 2 3.006 3.864 6.136 3.864s6.136-1.868 6.136-3.864V18.1z" class="cls-1" transform="translate(-2.136 -5.526)"/>
    </g>
</svg>
