<svg xmlns="http://www.w3.org/2000/svg" width="20" height="18" viewBox="0 0 20 18">
    <defs>
        <style>
            .cls-1{fill:#fff}
        </style>
    </defs>
    <g id="Teacher" transform="translate(-1.901 -5.765)">
        <path id="Path_1057" d="M74.712 44.768H74.5a2.446 2.446 0 0 0-2.423 2.775l.354 1.827a2.322 2.322 0 0 0 4.558 0l.354-1.827a2.446 2.446 0 0 0-2.423-2.775z" class="cls-1" transform="translate(-58.833 -33.09)"/>
        <path id="Path_1058" d="M62.6 94.369c-.01-.223-.023-.489-.04-.771-.037-.581-.092-1.232-.178-1.736a.9.9 0 0 0-.027-.118 1.247 1.247 0 0 0-.648-.791c-.72-.359-1.968-.823-2.824-1.128a.466.466 0 0 0-.059.111q-.652 1.545-1.3 3.091l-.041.1h-.029l-.341-2.68a.131.131 0 0 0-.13-.115h-.82a.131.131 0 0 0-.13.115l-.341 2.68h-.029l-.041-.1-1.3-3.091a.466.466 0 0 0-.059-.111c-.856.305-2.1.769-2.824 1.128a1.247 1.247 0 0 0-.648.791.9.9 0 0 0-.027.118c-.086.5-.142 1.155-.178 1.736-.017.282-.03.548-.04.771-.015.386-.019.644-.019.644h12.1l-.027-.644z" class="cls-1" transform="translate(-40.719 -71.248)"/>
        <path id="Path_1062" d="M12.414 15.6h-8.8V7.877H15.2v3.27a3.224 3.224 0 0 1 .378-.022H16c.065 0 .129 0 .194.006v-3.79a.721.721 0 0 0 .721-.72v-.135a.721.721 0 0 0-.721-.721H2.622a.721.721 0 0 0-.721.721v.135a.721.721 0 0 0 .721.72v8.652a.6.6 0 0 0 .6.6h9.379z" class="cls-1"/>
    </g>
</svg>
