<svg xmlns="http://www.w3.org/2000/svg" width="13.622" height="13.454" viewBox="0 0 13.622 13.454">
    <defs>
        <style>
            .cls-1{fill:#fff;stroke:#fff;stroke-width:.5px}
        </style>
    </defs>
    <g id="edit" transform="translate(.25 .25)">
        <path id="Path_16" d="M12.016 46.04a.324.324 0 0 0-.324.324v2.879a.974.974 0 0 1-.973.973h-9.1a.974.974 0 0 1-.973-.973v-8.45a.974.974 0 0 1 .973-.973H4.5a.324.324 0 0 0 0-.648H1.621A1.623 1.623 0 0 0 0 40.793v8.45a1.623 1.623 0 0 0 1.621 1.621h9.1a1.623 1.623 0 0 0 1.621-1.621v-2.879a.324.324 0 0 0-.326-.324zm0 0" class="cls-1" transform="translate(0 -37.91)"/>
        <path id="Path_17" d="M116.894.688a1.459 1.459 0 0 0-2.063 0l-5.785 5.785a.324.324 0 0 0-.083.143l-.763 2.746a.324.324 0 0 0 .4.4L111.347 9a.324.324 0 0 0 .143-.083l5.785-5.785a1.461 1.461 0 0 0 0-2.063zm-7.142 6l4.734-4.734 1.527 1.527-4.734 4.729zm-.3.612l1.22 1.22-1.687.467zm7.369-4.622l-.344.344-1.532-1.532.344-.344a.811.811 0 0 1 1.146 0l.381.38a.812.812 0 0 1 0 1.148zm0 0" class="cls-1" transform="translate(-104.682 -.261)"/>
    </g>
</svg>
